<?xml version="1.0" standalone="no"?>
<svg xmlns="http://www.w3.org/2000/svg" width="300" height="300"><defs><clipPath id="clip-path-dot-color"><circle cx="10" cy="100" r="5" transform="rotate(0,10,100)"/><circle cx="10" cy="120" r="5" transform="rotate(0,10,120)"/><circle cx="10" cy="140" r="5" transform="rotate(0,10,140)"/><circle cx="10" cy="170" r="5" transform="rotate(0,10,170)"/><circle cx="10" cy="180" r="5" transform="rotate(0,10,180)"/><circle cx="10" cy="200" r="5" transform="rotate(0,10,200)"/><circle cx="10" cy="210" r="5" transform="rotate(0,10,210)"/><circle cx="20" cy="90" r="5" transform="rotate(0,20,90)"/><circle cx="20" cy="100" r="5" transform="rotate(0,20,100)"/><circle cx="20" cy="110" r="5" transform="rotate(0,20,110)"/><circle cx="20" cy="130" r="5" transform="rotate(0,20,130)"/><circle cx="20" cy="150" r="5" transform="rotate(0,20,150)"/><circle cx="20" cy="160" r="5" transform="rotate(0,20,160)"/><circle cx="20" cy="180" r="5" transform="rotate(0,20,180)"/><circle cx="20" cy="200" r="5" transform="rotate(0,20,200)"/><circle cx="30" cy="110" r="5" transform="rotate(0,30,110)"/><circle cx="30" cy="130" r="5" transform="rotate(0,30,130)"/><circle cx="30" cy="150" r="5" transform="rotate(0,30,150)"/><circle cx="30" cy="200" r="5" transform="rotate(0,30,200)"/><circle cx="40" cy="90" r="5" transform="rotate(0,40,90)"/><circle cx="40" cy="100" r="5" transform="rotate(0,40,100)"/><circle cx="40" cy="130" r="5" transform="rotate(0,40,130)"/><circle cx="40" cy="140" r="5" transform="rotate(0,40,140)"/><circle cx="40" cy="170" r="5" transform="rotate(0,40,170)"/><circle cx="40" cy="180" r="5" transform="rotate(0,40,180)"/><circle cx="40" cy="190" r="5" transform="rotate(0,40,190)"/><circle cx="50" cy="90" r="5" transform="rotate(0,50,90)"/><circle cx="50" cy="100" r="5" transform="rotate(0,50,100)"/><circle cx="50" cy="120" r="5" transform="rotate(0,50,120)"/><circle cx="50" cy="130" r="5" transform="rotate(0,50,130)"/><circle cx="50" cy="140" r="5" transform="rotate(0,50,140)"/><circle cx="50" cy="150" r="5" transform="rotate(0,50,150)"/><circle cx="50" cy="160" r="5" transform="rotate(0,50,160)"/><circle cx="50" cy="170" r="5" transform="rotate(0,50,170)"/><circle cx="50" cy="190" r="5" transform="rotate(0,50,190)"/><circle cx="50" cy="200" r="5" transform="rotate(0,50,200)"/><circle cx="60" cy="170" r="5" transform="rotate(0,60,170)"/><circle cx="60" cy="210" r="5" transform="rotate(0,60,210)"/><circle cx="70" cy="90" r="5" transform="rotate(0,70,90)"/><circle cx="70" cy="110" r="5" transform="rotate(0,70,110)"/><circle cx="70" cy="130" r="5" transform="rotate(0,70,130)"/><circle cx="70" cy="150" r="5" transform="rotate(0,70,150)"/><circle cx="70" cy="170" r="5" transform="rotate(0,70,170)"/><circle cx="70" cy="190" r="5" transform="rotate(0,70,190)"/><circle cx="70" cy="210" r="5" transform="rotate(0,70,210)"/><circle cx="80" cy="90" r="5" transform="rotate(0,80,90)"/><circle cx="80" cy="100" r="5" transform="rotate(0,80,100)"/><circle cx="80" cy="110" r="5" transform="rotate(0,80,110)"/><circle cx="80" cy="150" r="5" transform="rotate(0,80,150)"/><circle cx="80" cy="160" r="5" transform="rotate(0,80,160)"/><circle cx="80" cy="170" r="5" transform="rotate(0,80,170)"/><circle cx="80" cy="180" r="5" transform="rotate(0,80,180)"/><circle cx="80" cy="190" r="5" transform="rotate(0,80,190)"/><circle cx="90" cy="20" r="5" transform="rotate(0,90,20)"/><circle cx="90" cy="40" r="5" transform="rotate(0,90,40)"/><circle cx="90" cy="50" r="5" transform="rotate(0,90,50)"/><circle cx="90" cy="60" r="5" transform="rotate(0,90,60)"/><circle cx="90" cy="70" r="5" transform="rotate(0,90,70)"/><circle cx="90" cy="90" r="5" transform="rotate(0,90,90)"/><circle cx="90" cy="120" r="5" transform="rotate(0,90,120)"/><circle cx="90" cy="130" r="5" transform="rotate(0,90,130)"/><circle cx="90" cy="140" r="5" transform="rotate(0,90,140)"/><circle cx="90" cy="150" r="5" transform="rotate(0,90,150)"/><circle cx="90" cy="160" r="5" transform="rotate(0,90,160)"/><circle cx="90" cy="170" r="5" transform="rotate(0,90,170)"/><circle cx="90" cy="200" r="5" transform="rotate(0,90,200)"/><circle cx="90" cy="220" r="5" transform="rotate(0,90,220)"/><circle cx="90" cy="230" r="5" transform="rotate(0,90,230)"/><circle cx="90" cy="250" r="5" transform="rotate(0,90,250)"/><circle cx="90" cy="260" r="5" transform="rotate(0,90,260)"/><circle cx="90" cy="280" r="5" transform="rotate(0,90,280)"/><circle cx="100" cy="20" r="5" transform="rotate(0,100,20)"/><circle cx="100" cy="50" r="5" transform="rotate(0,100,50)"/><circle cx="100" cy="60" r="5" transform="rotate(0,100,60)"/><circle cx="100" cy="90" r="5" transform="rotate(0,100,90)"/><circle cx="100" cy="100" r="5" transform="rotate(0,100,100)"/><circle cx="100" cy="120" r="5" transform="rotate(0,100,120)"/><circle cx="100" cy="130" r="5" transform="rotate(0,100,130)"/><circle cx="100" cy="140" r="5" transform="rotate(0,100,140)"/><circle cx="100" cy="180" r="5" transform="rotate(0,100,180)"/><circle cx="100" cy="190" r="5" transform="rotate(0,100,190)"/><circle cx="100" cy="240" r="5" transform="rotate(0,100,240)"/><circle cx="100" cy="250" r="5" transform="rotate(0,100,250)"/><circle cx="100" cy="260" r="5" transform="rotate(0,100,260)"/><circle cx="100" cy="280" r="5" transform="rotate(0,100,280)"/><circle cx="110" cy="20" r="5" transform="rotate(0,110,20)"/><circle cx="110" cy="40" r="5" transform="rotate(0,110,40)"/><circle cx="110" cy="60" r="5" transform="rotate(0,110,60)"/><circle cx="110" cy="70" r="5" transform="rotate(0,110,70)"/><circle cx="110" cy="80" r="5" transform="rotate(0,110,80)"/><circle cx="110" cy="100" r="5" transform="rotate(0,110,100)"/><circle cx="110" cy="200" r="5" transform="rotate(0,110,200)"/><circle cx="110" cy="210" r="5" transform="rotate(0,110,210)"/><circle cx="110" cy="220" r="5" transform="rotate(0,110,220)"/><circle cx="110" cy="230" r="5" transform="rotate(0,110,230)"/><circle cx="110" cy="260" r="5" transform="rotate(0,110,260)"/><circle cx="120" cy="40" r="5" transform="rotate(0,120,40)"/><circle cx="120" cy="50" r="5" transform="rotate(0,120,50)"/><circle cx="120" cy="90" r="5" transform="rotate(0,120,90)"/><circle cx="120" cy="100" r="5" transform="rotate(0,120,100)"/><circle cx="120" cy="200" r="5" transform="rotate(0,120,200)"/><circle cx="120" cy="210" r="5" transform="rotate(0,120,210)"/><circle cx="120" cy="240" r="5" transform="rotate(0,120,240)"/><circle cx="120" cy="250" r="5" transform="rotate(0,120,250)"/><circle cx="120" cy="260" r="5" transform="rotate(0,120,260)"/><circle cx="120" cy="290" r="5" transform="rotate(0,120,290)"/><circle cx="130" cy="10" r="5" transform="rotate(0,130,10)"/><circle cx="130" cy="20" r="5" transform="rotate(0,130,20)"/><circle cx="130" cy="40" r="5" transform="rotate(0,130,40)"/><circle cx="130" cy="60" r="5" transform="rotate(0,130,60)"/><circle cx="130" cy="70" r="5" transform="rotate(0,130,70)"/><circle cx="130" cy="90" r="5" transform="rotate(0,130,90)"/><circle cx="130" cy="100" r="5" transform="rotate(0,130,100)"/><circle cx="130" cy="220" r="5" transform="rotate(0,130,220)"/><circle cx="130" cy="230" r="5" transform="rotate(0,130,230)"/><circle cx="130" cy="260" r="5" transform="rotate(0,130,260)"/><circle cx="130" cy="280" r="5" transform="rotate(0,130,280)"/><circle cx="140" cy="40" r="5" transform="rotate(0,140,40)"/><circle cx="140" cy="50" r="5" transform="rotate(0,140,50)"/><circle cx="140" cy="60" r="5" transform="rotate(0,140,60)"/><circle cx="140" cy="80" r="5" transform="rotate(0,140,80)"/><circle cx="140" cy="90" r="5" transform="rotate(0,140,90)"/><circle cx="140" cy="230" r="5" transform="rotate(0,140,230)"/><circle cx="140" cy="250" r="5" transform="rotate(0,140,250)"/><circle cx="140" cy="270" r="5" transform="rotate(0,140,270)"/><circle cx="140" cy="290" r="5" transform="rotate(0,140,290)"/><circle cx="150" cy="40" r="5" transform="rotate(0,150,40)"/><circle cx="150" cy="60" r="5" transform="rotate(0,150,60)"/><circle cx="150" cy="70" r="5" transform="rotate(0,150,70)"/><circle cx="150" cy="80" r="5" transform="rotate(0,150,80)"/><circle cx="150" cy="200" r="5" transform="rotate(0,150,200)"/><circle cx="150" cy="210" r="5" transform="rotate(0,150,210)"/><circle cx="150" cy="240" r="5" transform="rotate(0,150,240)"/><circle cx="150" cy="260" r="5" transform="rotate(0,150,260)"/><circle cx="150" cy="290" r="5" transform="rotate(0,150,290)"/><circle cx="160" cy="50" r="5" transform="rotate(0,160,50)"/><circle cx="160" cy="80" r="5" transform="rotate(0,160,80)"/><circle cx="160" cy="90" r="5" transform="rotate(0,160,90)"/><circle cx="160" cy="200" r="5" transform="rotate(0,160,200)"/><circle cx="160" cy="220" r="5" transform="rotate(0,160,220)"/><circle cx="160" cy="250" r="5" transform="rotate(0,160,250)"/><circle cx="160" cy="260" r="5" transform="rotate(0,160,260)"/><circle cx="160" cy="270" r="5" transform="rotate(0,160,270)"/><circle cx="170" cy="40" r="5" transform="rotate(0,170,40)"/><circle cx="170" cy="50" r="5" transform="rotate(0,170,50)"/><circle cx="170" cy="60" r="5" transform="rotate(0,170,60)"/><circle cx="170" cy="70" r="5" transform="rotate(0,170,70)"/><circle cx="170" cy="90" r="5" transform="rotate(0,170,90)"/><circle cx="170" cy="210" r="5" transform="rotate(0,170,210)"/><circle cx="170" cy="240" r="5" transform="rotate(0,170,240)"/><circle cx="170" cy="260" r="5" transform="rotate(0,170,260)"/><circle cx="170" cy="280" r="5" transform="rotate(0,170,280)"/><circle cx="180" cy="10" r="5" transform="rotate(0,180,10)"/><circle cx="180" cy="20" r="5" transform="rotate(0,180,20)"/><circle cx="180" cy="30" r="5" transform="rotate(0,180,30)"/><circle cx="180" cy="60" r="5" transform="rotate(0,180,60)"/><circle cx="180" cy="80" r="5" transform="rotate(0,180,80)"/><circle cx="180" cy="90" r="5" transform="rotate(0,180,90)"/><circle cx="180" cy="100" r="5" transform="rotate(0,180,100)"/><circle cx="180" cy="250" r="5" transform="rotate(0,180,250)"/><circle cx="180" cy="260" r="5" transform="rotate(0,180,260)"/><circle cx="180" cy="270" r="5" transform="rotate(0,180,270)"/><circle cx="190" cy="10" r="5" transform="rotate(0,190,10)"/><circle cx="190" cy="20" r="5" transform="rotate(0,190,20)"/><circle cx="190" cy="40" r="5" transform="rotate(0,190,40)"/><circle cx="190" cy="70" r="5" transform="rotate(0,190,70)"/><circle cx="190" cy="200" r="5" transform="rotate(0,190,200)"/><circle cx="190" cy="240" r="5" transform="rotate(0,190,240)"/><circle cx="190" cy="290" r="5" transform="rotate(0,190,290)"/><circle cx="200" cy="10" r="5" transform="rotate(0,200,10)"/><circle cx="200" cy="20" r="5" transform="rotate(0,200,20)"/><circle cx="200" cy="50" r="5" transform="rotate(0,200,50)"/><circle cx="200" cy="90" r="5" transform="rotate(0,200,90)"/><circle cx="200" cy="110" r="5" transform="rotate(0,200,110)"/><circle cx="200" cy="160" r="5" transform="rotate(0,200,160)"/><circle cx="200" cy="170" r="5" transform="rotate(0,200,170)"/><circle cx="200" cy="190" r="5" transform="rotate(0,200,190)"/><circle cx="200" cy="220" r="5" transform="rotate(0,200,220)"/><circle cx="200" cy="230" r="5" transform="rotate(0,200,230)"/><circle cx="200" cy="240" r="5" transform="rotate(0,200,240)"/><circle cx="200" cy="270" r="5" transform="rotate(0,200,270)"/><circle cx="200" cy="280" r="5" transform="rotate(0,200,280)"/><circle cx="210" cy="10" r="5" transform="rotate(0,210,10)"/><circle cx="210" cy="20" r="5" transform="rotate(0,210,20)"/><circle cx="210" cy="30" r="5" transform="rotate(0,210,30)"/><circle cx="210" cy="40" r="5" transform="rotate(0,210,40)"/><circle cx="210" cy="50" r="5" transform="rotate(0,210,50)"/><circle cx="210" cy="60" r="5" transform="rotate(0,210,60)"/><circle cx="210" cy="70" r="5" transform="rotate(0,210,70)"/><circle cx="210" cy="90" r="5" transform="rotate(0,210,90)"/><circle cx="210" cy="100" r="5" transform="rotate(0,210,100)"/><circle cx="210" cy="110" r="5" transform="rotate(0,210,110)"/><circle cx="210" cy="120" r="5" transform="rotate(0,210,120)"/><circle cx="210" cy="130" r="5" transform="rotate(0,210,130)"/><circle cx="210" cy="140" r="5" transform="rotate(0,210,140)"/><circle cx="210" cy="150" r="5" transform="rotate(0,210,150)"/><circle cx="210" cy="170" r="5" transform="rotate(0,210,170)"/><circle cx="210" cy="180" r="5" transform="rotate(0,210,180)"/><circle cx="210" cy="210" r="5" transform="rotate(0,210,210)"/><circle cx="210" cy="220" r="5" transform="rotate(0,210,220)"/><circle cx="210" cy="230" r="5" transform="rotate(0,210,230)"/><circle cx="210" cy="240" r="5" transform="rotate(0,210,240)"/><circle cx="210" cy="250" r="5" transform="rotate(0,210,250)"/><circle cx="210" cy="260" r="5" transform="rotate(0,210,260)"/><circle cx="210" cy="270" r="5" transform="rotate(0,210,270)"/><circle cx="210" cy="280" r="5" transform="rotate(0,210,280)"/><circle cx="220" cy="90" r="5" transform="rotate(0,220,90)"/><circle cx="220" cy="100" r="5" transform="rotate(0,220,100)"/><circle cx="220" cy="110" r="5" transform="rotate(0,220,110)"/><circle cx="220" cy="120" r="5" transform="rotate(0,220,120)"/><circle cx="220" cy="130" r="5" transform="rotate(0,220,130)"/><circle cx="220" cy="160" r="5" transform="rotate(0,220,160)"/><circle cx="220" cy="180" r="5" transform="rotate(0,220,180)"/><circle cx="220" cy="190" r="5" transform="rotate(0,220,190)"/><circle cx="220" cy="200" r="5" transform="rotate(0,220,200)"/><circle cx="220" cy="210" r="5" transform="rotate(0,220,210)"/><circle cx="220" cy="250" r="5" transform="rotate(0,220,250)"/><circle cx="220" cy="260" r="5" transform="rotate(0,220,260)"/><circle cx="220" cy="270" r="5" transform="rotate(0,220,270)"/><circle cx="230" cy="100" r="5" transform="rotate(0,230,100)"/><circle cx="230" cy="140" r="5" transform="rotate(0,230,140)"/><circle cx="230" cy="150" r="5" transform="rotate(0,230,150)"/><circle cx="230" cy="160" r="5" transform="rotate(0,230,160)"/><circle cx="230" cy="170" r="5" transform="rotate(0,230,170)"/><circle cx="230" cy="200" r="5" transform="rotate(0,230,200)"/><circle cx="230" cy="210" r="5" transform="rotate(0,230,210)"/><circle cx="230" cy="230" r="5" transform="rotate(0,230,230)"/><circle cx="230" cy="250" r="5" transform="rotate(0,230,250)"/><circle cx="230" cy="270" r="5" transform="rotate(0,230,270)"/><circle cx="240" cy="90" r="5" transform="rotate(0,240,90)"/><circle cx="240" cy="100" r="5" transform="rotate(0,240,100)"/><circle cx="240" cy="160" r="5" transform="rotate(0,240,160)"/><circle cx="240" cy="170" r="5" transform="rotate(0,240,170)"/><circle cx="240" cy="190" r="5" transform="rotate(0,240,190)"/><circle cx="240" cy="200" r="5" transform="rotate(0,240,200)"/><circle cx="240" cy="210" r="5" transform="rotate(0,240,210)"/><circle cx="240" cy="250" r="5" transform="rotate(0,240,250)"/><circle cx="240" cy="260" r="5" transform="rotate(0,240,260)"/><circle cx="240" cy="280" r="5" transform="rotate(0,240,280)"/><circle cx="240" cy="290" r="5" transform="rotate(0,240,290)"/><circle cx="250" cy="90" r="5" transform="rotate(0,250,90)"/><circle cx="250" cy="110" r="5" transform="rotate(0,250,110)"/><circle cx="250" cy="120" r="5" transform="rotate(0,250,120)"/><circle cx="250" cy="140" r="5" transform="rotate(0,250,140)"/><circle cx="250" cy="150" r="5" transform="rotate(0,250,150)"/><circle cx="250" cy="160" r="5" transform="rotate(0,250,160)"/><circle cx="250" cy="180" r="5" transform="rotate(0,250,180)"/><circle cx="250" cy="200" r="5" transform="rotate(0,250,200)"/><circle cx="250" cy="210" r="5" transform="rotate(0,250,210)"/><circle cx="250" cy="220" r="5" transform="rotate(0,250,220)"/><circle cx="250" cy="230" r="5" transform="rotate(0,250,230)"/><circle cx="250" cy="240" r="5" transform="rotate(0,250,240)"/><circle cx="250" cy="250" r="5" transform="rotate(0,250,250)"/><circle cx="250" cy="290" r="5" transform="rotate(0,250,290)"/><circle cx="260" cy="90" r="5" transform="rotate(0,260,90)"/><circle cx="260" cy="100" r="5" transform="rotate(0,260,100)"/><circle cx="260" cy="150" r="5" transform="rotate(0,260,150)"/><circle cx="260" cy="190" r="5" transform="rotate(0,260,190)"/><circle cx="260" cy="240" r="5" transform="rotate(0,260,240)"/><circle cx="260" cy="260" r="5" transform="rotate(0,260,260)"/><circle cx="260" cy="280" r="5" transform="rotate(0,260,280)"/><circle cx="270" cy="110" r="5" transform="rotate(0,270,110)"/><circle cx="270" cy="130" r="5" transform="rotate(0,270,130)"/><circle cx="270" cy="140" r="5" transform="rotate(0,270,140)"/><circle cx="270" cy="160" r="5" transform="rotate(0,270,160)"/><circle cx="270" cy="190" r="5" transform="rotate(0,270,190)"/><circle cx="270" cy="210" r="5" transform="rotate(0,270,210)"/><circle cx="270" cy="220" r="5" transform="rotate(0,270,220)"/><circle cx="270" cy="240" r="5" transform="rotate(0,270,240)"/><circle cx="270" cy="250" r="5" transform="rotate(0,270,250)"/><circle cx="270" cy="270" r="5" transform="rotate(0,270,270)"/><circle cx="270" cy="280" r="5" transform="rotate(0,270,280)"/><circle cx="270" cy="290" r="5" transform="rotate(0,270,290)"/><circle cx="280" cy="90" r="5" transform="rotate(0,280,90)"/><circle cx="280" cy="100" r="5" transform="rotate(0,280,100)"/><circle cx="280" cy="120" r="5" transform="rotate(0,280,120)"/><circle cx="280" cy="130" r="5" transform="rotate(0,280,130)"/><circle cx="280" cy="140" r="5" transform="rotate(0,280,140)"/><circle cx="280" cy="170" r="5" transform="rotate(0,280,170)"/><circle cx="280" cy="220" r="5" transform="rotate(0,280,220)"/><circle cx="280" cy="250" r="5" transform="rotate(0,280,250)"/><circle cx="280" cy="270" r="5" transform="rotate(0,280,270)"/><circle cx="280" cy="290" r="5" transform="rotate(0,280,290)"/><circle cx="290" cy="110" r="5" transform="rotate(0,290,110)"/><circle cx="290" cy="150" r="5" transform="rotate(0,290,150)"/><circle cx="290" cy="160" r="5" transform="rotate(0,290,160)"/><circle cx="290" cy="210" r="5" transform="rotate(0,290,210)"/><circle cx="290" cy="240" r="5" transform="rotate(0,290,240)"/><circle cx="290" cy="250" r="5" transform="rotate(0,290,250)"/><circle cx="10" cy="10" r="5" transform="rotate(0,10,10)"/><circle cx="10" cy="20" r="5" transform="rotate(0,10,20)"/><circle cx="10" cy="30" r="5" transform="rotate(0,10,30)"/><circle cx="10" cy="40" r="5" transform="rotate(0,10,40)"/><circle cx="10" cy="50" r="5" transform="rotate(0,10,50)"/><circle cx="10" cy="60" r="5" transform="rotate(0,10,60)"/><circle cx="10" cy="70" r="5" transform="rotate(0,10,70)"/><circle cx="20" cy="10" r="5" transform="rotate(0,20,10)"/><circle cx="20" cy="70" r="5" transform="rotate(0,20,70)"/><circle cx="30" cy="10" r="5" transform="rotate(0,30,10)"/><circle cx="30" cy="70" r="5" transform="rotate(0,30,70)"/><circle cx="40" cy="10" r="5" transform="rotate(0,40,10)"/><circle cx="40" cy="70" r="5" transform="rotate(0,40,70)"/><circle cx="50" cy="10" r="5" transform="rotate(0,50,10)"/><circle cx="50" cy="70" r="5" transform="rotate(0,50,70)"/><circle cx="60" cy="10" r="5" transform="rotate(0,60,10)"/><circle cx="60" cy="70" r="5" transform="rotate(0,60,70)"/><circle cx="70" cy="10" r="5" transform="rotate(0,70,10)"/><circle cx="70" cy="20" r="5" transform="rotate(0,70,20)"/><circle cx="70" cy="30" r="5" transform="rotate(0,70,30)"/><circle cx="70" cy="40" r="5" transform="rotate(0,70,40)"/><circle cx="70" cy="50" r="5" transform="rotate(0,70,50)"/><circle cx="70" cy="60" r="5" transform="rotate(0,70,60)"/><circle cx="70" cy="70" r="5" transform="rotate(0,70,70)"/><circle cx="30" cy="30" r="5" transform="rotate(0,30,30)"/><circle cx="30" cy="40" r="5" transform="rotate(0,30,40)"/><circle cx="30" cy="50" r="5" transform="rotate(0,30,50)"/><circle cx="40" cy="30" r="5" transform="rotate(0,40,30)"/><circle cx="40" cy="40" r="5" transform="rotate(0,40,40)"/><circle cx="40" cy="50" r="5" transform="rotate(0,40,50)"/><circle cx="50" cy="30" r="5" transform="rotate(0,50,30)"/><circle cx="50" cy="40" r="5" transform="rotate(0,50,40)"/><circle cx="50" cy="50" r="5" transform="rotate(0,50,50)"/><circle cx="230" cy="10" r="5" transform="rotate(0,230,10)"/><circle cx="230" cy="20" r="5" transform="rotate(0,230,20)"/><circle cx="230" cy="30" r="5" transform="rotate(0,230,30)"/><circle cx="230" cy="40" r="5" transform="rotate(0,230,40)"/><circle cx="230" cy="50" r="5" transform="rotate(0,230,50)"/><circle cx="230" cy="60" r="5" transform="rotate(0,230,60)"/><circle cx="230" cy="70" r="5" transform="rotate(0,230,70)"/><circle cx="240" cy="10" r="5" transform="rotate(0,240,10)"/><circle cx="240" cy="70" r="5" transform="rotate(0,240,70)"/><circle cx="250" cy="10" r="5" transform="rotate(0,250,10)"/><circle cx="250" cy="70" r="5" transform="rotate(0,250,70)"/><circle cx="260" cy="10" r="5" transform="rotate(0,260,10)"/><circle cx="260" cy="70" r="5" transform="rotate(0,260,70)"/><circle cx="270" cy="10" r="5" transform="rotate(0,270,10)"/><circle cx="270" cy="70" r="5" transform="rotate(0,270,70)"/><circle cx="280" cy="10" r="5" transform="rotate(0,280,10)"/><circle cx="280" cy="70" r="5" transform="rotate(0,280,70)"/><circle cx="290" cy="10" r="5" transform="rotate(0,290,10)"/><circle cx="290" cy="20" r="5" transform="rotate(0,290,20)"/><circle cx="290" cy="30" r="5" transform="rotate(0,290,30)"/><circle cx="290" cy="40" r="5" transform="rotate(0,290,40)"/><circle cx="290" cy="50" r="5" transform="rotate(0,290,50)"/><circle cx="290" cy="60" r="5" transform="rotate(0,290,60)"/><circle cx="290" cy="70" r="5" transform="rotate(0,290,70)"/><circle cx="250" cy="30" r="5" transform="rotate(0,250,30)"/><circle cx="250" cy="40" r="5" transform="rotate(0,250,40)"/><circle cx="250" cy="50" r="5" transform="rotate(0,250,50)"/><circle cx="260" cy="30" r="5" transform="rotate(0,260,30)"/><circle cx="260" cy="40" r="5" transform="rotate(0,260,40)"/><circle cx="260" cy="50" r="5" transform="rotate(0,260,50)"/><circle cx="270" cy="30" r="5" transform="rotate(0,270,30)"/><circle cx="270" cy="40" r="5" transform="rotate(0,270,40)"/><circle cx="270" cy="50" r="5" transform="rotate(0,270,50)"/><circle cx="10" cy="230" r="5" transform="rotate(0,10,230)"/><circle cx="10" cy="240" r="5" transform="rotate(0,10,240)"/><circle cx="10" cy="250" r="5" transform="rotate(0,10,250)"/><circle cx="10" cy="260" r="5" transform="rotate(0,10,260)"/><circle cx="10" cy="270" r="5" transform="rotate(0,10,270)"/><circle cx="10" cy="280" r="5" transform="rotate(0,10,280)"/><circle cx="10" cy="290" r="5" transform="rotate(0,10,290)"/><circle cx="20" cy="230" r="5" transform="rotate(0,20,230)"/><circle cx="20" cy="290" r="5" transform="rotate(0,20,290)"/><circle cx="30" cy="230" r="5" transform="rotate(0,30,230)"/><circle cx="30" cy="290" r="5" transform="rotate(0,30,290)"/><circle cx="40" cy="230" r="5" transform="rotate(0,40,230)"/><circle cx="40" cy="290" r="5" transform="rotate(0,40,290)"/><circle cx="50" cy="230" r="5" transform="rotate(0,50,230)"/><circle cx="50" cy="290" r="5" transform="rotate(0,50,290)"/><circle cx="60" cy="230" r="5" transform="rotate(0,60,230)"/><circle cx="60" cy="290" r="5" transform="rotate(0,60,290)"/><circle cx="70" cy="230" r="5" transform="rotate(0,70,230)"/><circle cx="70" cy="240" r="5" transform="rotate(0,70,240)"/><circle cx="70" cy="250" r="5" transform="rotate(0,70,250)"/><circle cx="70" cy="260" r="5" transform="rotate(0,70,260)"/><circle cx="70" cy="270" r="5" transform="rotate(0,70,270)"/><circle cx="70" cy="280" r="5" transform="rotate(0,70,280)"/><circle cx="70" cy="290" r="5" transform="rotate(0,70,290)"/><circle cx="30" cy="250" r="5" transform="rotate(0,30,250)"/><circle cx="30" cy="260" r="5" transform="rotate(0,30,260)"/><circle cx="30" cy="270" r="5" transform="rotate(0,30,270)"/><circle cx="40" cy="250" r="5" transform="rotate(0,40,250)"/><circle cx="40" cy="260" r="5" transform="rotate(0,40,260)"/><circle cx="40" cy="270" r="5" transform="rotate(0,40,270)"/><circle cx="50" cy="250" r="5" transform="rotate(0,50,250)"/><circle cx="50" cy="260" r="5" transform="rotate(0,50,260)"/><circle cx="50" cy="270" r="5" transform="rotate(0,50,270)"/></clipPath></defs><rect x="0" y="0" height="300" width="300" clip-path="url('#clip-path-background-color')" fill="#e9ebee"/><rect x="5" y="5" height="290" width="290" clip-path="url('#clip-path-dot-color')" fill="#4267b2"/><image href="https://upload.wikimedia.org/wikipedia/commons/5/51/Facebook_f_logo_%282019%29.svg" x="125" y="125" width="50px" height="50px"/></svg>